<svg width="32" height="32" viewBox="0 0 32 32" fill="none" xmlns="http://www.w3.org/2000/svg">
<path d="M16 0C20.2435 0 24.3131 1.68571 27.3137 4.68629C30.3143 7.68687 32 11.7565 32 16C32 20.2435 30.3143 24.3131 27.3137 27.3137C24.3131 30.3143 20.2435 32 16 32C11.7565 32 7.68687 30.3143 4.68629 27.3137C1.68571 24.3131 0 20.2435 0 16C0 11.7565 1.68571 7.68687 4.68629 4.68629C7.68687 1.68571 11.7565 0 16 0ZM18.3998 9.8233C19.5883 9.8233 20.5528 8.99821 20.5528 7.77544C20.5528 6.55267 19.586 5.72759 18.3998 5.72759C17.2113 5.72759 16.2514 6.55267 16.2514 7.77544C16.2514 8.99821 17.2113 9.8233 18.3998 9.8233ZM18.8181 22.6841C18.8181 22.4395 18.9026 21.8042 18.8547 21.443L16.9759 23.6052C16.5874 24.0143 16.1006 24.2977 15.872 24.2223C15.7683 24.1841 15.6816 24.1102 15.6276 24.0138C15.5735 23.9175 15.5557 23.805 15.5772 23.6966L18.7084 13.8047C18.9644 12.55 18.2604 11.4049 16.7679 11.2586C15.1932 11.2586 12.8757 12.8562 11.4655 14.8835C11.4655 15.1258 11.4198 15.7292 11.4678 16.0903L13.3442 13.9259C13.7327 13.5213 14.1853 13.2356 14.4138 13.3133C14.5264 13.3538 14.6187 13.4367 14.6708 13.5444C14.723 13.6521 14.7308 13.7759 14.6927 13.8893L11.5889 23.7332C11.2301 24.8851 11.9089 26.0141 13.5545 26.2701C15.9771 26.2701 17.4079 24.7114 18.8204 22.6841H18.8181Z" fill="#1D5769"/>
</svg>
