<svg width="64" height="64" viewBox="0 0 64 64" fill="none" xmlns="http://www.w3.org/2000/svg">
<path fill-rule="evenodd" clip-rule="evenodd" d="M32 0C14.3273 0 0 14.3273 0 32C0 49.6727 14.3273 64 32 64C49.6727 64 64 49.6727 64 32C64 14.3273 49.6727 0 32 0ZM28.7767 23.0836C29.4458 21.7658 29.9404 21.1404 30.3505 20.8145C30.6589 20.5702 31.0778 20.3636 32 20.3636C33.8182 20.3636 34.9091 21.7309 34.9091 23.2087C34.9091 24.0175 34.752 24.4189 34.3215 24.9309C33.7193 25.6465 32.6051 26.5164 30.4 27.9738L29.0909 28.8349V34.9091C29.0909 35.6806 29.3974 36.4206 29.943 36.9661C30.4885 37.5117 31.2285 37.8182 32 37.8182C32.7715 37.8182 33.5115 37.5117 34.057 36.9661C34.6026 36.4206 34.9091 35.6806 34.9091 34.9091V31.9505C36.4858 30.8625 37.8095 29.8211 38.7695 28.6807C40.1571 27.0342 40.7273 25.2771 40.7273 23.2087C40.7273 18.9324 37.4313 14.5455 32 14.5455C30.0102 14.5455 28.2502 15.0575 26.7404 16.2531C25.3324 17.3673 24.3724 18.9004 23.5869 20.4567C23.4044 20.7985 23.292 21.1732 23.2562 21.559C23.2205 21.9447 23.2622 22.3337 23.3788 22.7032C23.4955 23.0726 23.6847 23.415 23.9355 23.7103C24.1863 24.0056 24.4935 24.2478 24.8392 24.4228C25.1848 24.5978 25.5619 24.7019 25.9484 24.7292C26.3348 24.7564 26.7228 24.7062 27.0896 24.5814C27.4564 24.4567 27.7946 24.2599 28.0843 24.0027C28.374 23.7455 28.6094 23.4331 28.7767 23.0836ZM34.9091 45.0909C34.9091 44.3194 34.6026 43.5794 34.057 43.0339C33.5115 42.4883 32.7715 42.1818 32 42.1818C31.2285 42.1818 30.4885 42.4883 29.943 43.0339C29.3974 43.5794 29.0909 44.3194 29.0909 45.0909V46.5455C29.0909 47.317 29.3974 48.0569 29.943 48.6025C30.4885 49.1481 31.2285 49.4545 32 49.4545C32.7715 49.4545 33.5115 49.1481 34.057 48.6025C34.6026 48.0569 34.9091 47.317 34.9091 46.5455V45.0909Z" fill="#1AA4F2"/>
</svg>
