<svg width="90" height="90" viewBox="0 0 90 90" fill="none" xmlns="http://www.w3.org/2000/svg">
<path fill-rule="evenodd" clip-rule="evenodd" d="M42.3675 8.23125C43.8473 7.67757 45.4642 7.60539 46.9875 8.025L47.6325 8.23125L73.8825 18.075C75.2135 18.5741 76.3752 19.4411 77.2324 20.5751C78.0895 21.7091 78.6067 23.0633 78.7237 24.48L78.75 25.0987V45.21C78.7499 51.2866 77.1091 57.2504 74.001 62.472C70.8929 67.6935 66.4327 71.9791 61.0913 74.8763L60.0938 75.3975L47.5162 81.6863C46.8237 82.032 46.0673 82.2311 45.2943 82.2712C44.5212 82.3112 43.7483 82.1912 43.0237 81.9187L42.4838 81.6863L29.9062 75.3975C24.471 72.6798 19.8704 68.5451 16.59 63.4298C13.3096 58.3145 11.4712 52.4084 11.2688 46.335L11.25 45.21V25.0987C11.25 23.678 11.6536 22.2865 12.4138 21.0861C13.1739 19.8858 14.2594 18.9261 15.5437 18.3188L16.1175 18.075L42.3675 8.23125ZM57.8737 32.3587L40.6313 49.6012L34.0013 42.9712C33.2976 42.2681 32.3434 41.8733 31.3487 41.8736C30.3539 41.874 29.4 42.2695 28.6969 42.9731C27.9937 43.6768 27.5989 44.6309 27.5992 45.6257C27.5996 46.6205 27.9951 47.5743 28.6987 48.2775L37.7138 57.2925C38.0968 57.6757 38.5516 57.9798 39.0522 58.1872C39.5528 58.3946 40.0894 58.5014 40.6313 58.5014C41.1731 58.5014 41.7097 58.3946 42.2103 58.1872C42.7109 57.9798 43.1657 57.6757 43.5487 57.2925L63.1763 37.6612C63.5344 37.3153 63.8201 36.9015 64.0166 36.444C64.2132 35.9865 64.3166 35.4944 64.3209 34.9965C64.3253 34.4986 64.2304 34.0048 64.0418 33.5439C63.8533 33.0831 63.5748 32.6644 63.2227 32.3123C62.8706 31.9602 62.4519 31.6817 61.9911 31.4932C61.5302 31.3046 61.0364 31.2097 60.5385 31.2141C60.0406 31.2184 59.5485 31.3218 59.091 31.5184C58.6335 31.7149 58.2197 32.0006 57.8737 32.3587Z" fill="#1AA4F2"/>
</svg>
